# xmcd
# 
# Track frame offsets:
#     150
#     16339
#     38233
#     56974
#     91828
#     112109
#     127284
#     145952
#     164732
#     174350
#     186001
#     199373
#     220457
#     235835
#     256862
#     274244
#     295700
#     313745
#     335880
# 
# Disc length: 4712
# 
# Revision: 2
# Processed by: cddbd v1.5.2PL0 Copyright (c) Steve Scherf et al.
# Submitted via: fre:ac v1.0.17
# 
DISCID=33126613
DTITLE=Various Artist - Lauluni aiheet I Legenda cd2
DYEAR=0
DGENRE=
TTITLE0=Vesa-Matti Loiri - Nocturne
TTITLE1=Vesa-Matti Loiri - Albatrossi
TTITLE2=Vesa-Matti Loiri - Hetken Tie On Kevyt
TTITLE3=Vesa-Matti Loiri - Juokse Sinä Humma
TTITLE4=Vesa-Matti Loiri - Filosofeeraava Ylioppilas
TTITLE5=Vesa-Matti Loiri - Anttilan Keväthuumaus – Sjösalavals
TTITLE6=Vesa-Matti Loiri Ja Johanna Kurkela - Kaiken Nähnyt
TTITLE7=Vesa-Matti Loiri - Peltoniemen Hintriikan Surumarssi
TTITLE8=Vesa-Matti Loiri - Ja Vuodet Ne Käy
TTITLE9=Vesa-Matti Loiri - Kosolan Tulolaulu
TTITLE10=Vesa-Matti Loiri - Maininkeja
TTITLE11=Vesa-Matti Loiri - Oi, Muistatko Vielä Sen Virren
TTITLE12=Vesa-Matti Loiri - Pyhä Toimitus
TTITLE13=Vesa-Matti Loiri - Ei Ole Kööpenhamina Kuin Ennen
TTITLE14=Vesa-Matti Loiri - Reppu Ja Reissumies
TTITLE15=Vesa-Matti Loiri - Kotkan Poikii Ilman Siipii
TTITLE16=Vesa-Matti Loiri - Elegia
TTITLE17=Vesa-Matti Loiri - Vaiennut Viulu
TTITLE18=Vesa-Matti Loiri - Tuomittuna Kulkemaan
EXTD=
EXTT0=
EXTT1=
EXTT2=
EXTT3=
EXTT4=
EXTT5=
EXTT6=
EXTT7=
EXTT8=
EXTT9=
EXTT10=
EXTT11=
EXTT12=
EXTT13=
EXTT14=
EXTT15=
EXTT16=
EXTT17=
EXTT18=
PLAYORDER=
